<?xml version="1.0" encoding="UTF-8" standalone="no"?>
<!-- Created with Inkscape (http://www.inkscape.org/) -->

<svg
   xmlns:dc="http://purl.org/dc/elements/1.1/"
   xmlns:cc="http://creativecommons.org/ns#"
   xmlns:rdf="http://www.w3.org/1999/02/22-rdf-syntax-ns#"
   xmlns:svg="http://www.w3.org/2000/svg"
   xmlns="http://www.w3.org/2000/svg"
   xmlns:sodipodi="http://sodipodi.sourceforge.net/DTD/sodipodi-0.dtd"
   xmlns:inkscape="http://www.inkscape.org/namespaces/inkscape"
   id="svg2"
   style="shape-rendering:crispEdges"
   sodipodi:docname="banner.svg"
   inkscape:export-filename="C:\Users\Randy\Documents\HTML JUNK\kg-site\images\banner-image.png"
   height="83.933mm"
   width="113.72mm"
   inkscape:export-xdpi="89.919998"
   version="1.1"
   inkscape:export-ydpi="89.919998"
   inkscape:version="0.91 r13725"
   viewBox="0 0 402.95771 297.40194">
  <metadata
     id="metadata5390">
    <rdf:RDF>
      <cc:Work
         rdf:about="">
        <dc:format>image/svg+xml</dc:format>
        <dc:type
           rdf:resource="http://purl.org/dc/dcmitype/StillImage" />
      </cc:Work>
    </rdf:RDF>
  </metadata>
  <defs
     id="defs5388" />
  <sodipodi:namedview
     id="base"
     fit-margin-left="0"
     inkscape:showpageshadow="true"
     inkscape:zoom="0.7"
     borderopacity="1.0"
     inkscape:current-layer="layer1"
     inkscape:cx="63.303741"
     inkscape:cy="58.961459"
     inkscape:window-maximized="1"
     showgrid="false"
     fit-margin-right="0"
     inkscape:document-units="px"
     bordercolor="#666666"
     inkscape:window-x="-8"
     inkscape:window-y="-8"
     fit-margin-bottom="0"
     inkscape:window-width="1360"
     inkscape:pageopacity="0.0"
     inkscape:pageshadow="2"
     pagecolor="#ffffff"
     inkscape:window-height="706"
     showborder="true"
     fit-margin-top="0" />
  <g
     id="layer1"
     transform="translate(104.8 4901)"
     inkscape:groupmode="layer"
     inkscape:label="Layer 1">
    <g
       id="text4161"
       transform="scale(1.1793 .84799)">
      <path
         id="path4171"
         style=""
         d="m101.61-5557.1h-33.471l-60.463-65.996-16.465 15.656v50.341h-25.373v-210h25.373v134.69l73.284-75.444h31.986l-70.045 69.64 75.174 81.112z" />
    </g>
    <g
       id="text4155"
       transform="matrix(0.54928153,0,0,1.8973,-5.6589385,0)"
       style="stroke:#000000;stroke-opacity:1;fill:#000000;fill-opacity:1;stroke-width:0.48979949;stroke-miterlimit:4;stroke-dasharray:none">
      <path
         id="path4174"
         d="m -103.8,-2442.4 -6.7246,0 -12.148,-13.259 -3.3081,3.1453 0,10.114 -5.0977,0 0,-42.192 5.0977,0 0,27.061 14.724,-15.158 6.4263,0 -14.073,13.992 15.103,16.296 z"
         inkscape:connector-curvature="0"
         style="stroke:#000000;stroke-opacity:1;fill:#000000;fill-opacity:1;stroke-width:0.48979949;stroke-miterlimit:4;stroke-dasharray:none" />
      <path
         id="path4176"
         d="m -93.282,-2442.4 -5.0977,0 0,-42.192 5.0977,0 0,42.192 z"
         inkscape:connector-curvature="0"
         style="stroke:#000000;stroke-opacity:1;fill:#000000;fill-opacity:1;stroke-width:0.48979949;stroke-miterlimit:4;stroke-dasharray:none" />
      <path
         id="path4178"
         d="m -59.822,-2442.4 -5.0706,0 0,-3.2268 q -0.67788,0.461 -1.8438,1.3016 -1.1388,0.8134 -2.2235,1.3015 -1.2744,0.6237 -2.9285,1.0304 -1.654,0.4339 -3.8775,0.4339 -4.0944,0 -6.9415,-2.7116 -2.8471,-2.7115 -2.8471,-6.9144 0,-3.4437 1.4642,-5.5586 1.4913,-2.1422 4.23,-3.3624 2.7658,-1.2201 6.6433,-1.654 3.8775,-0.4338 8.3244,-0.6508 l 0,-0.7863 q 0,-1.7354 -0.62365,-2.8742 -0.59654,-1.1389 -1.7354,-1.7896 -1.0846,-0.6237 -2.6031,-0.8406 -1.5185,-0.2169 -3.1725,-0.2169 -2.0065,0 -4.474,0.5423 -2.4675,0.5152 -5.0977,1.5184 l -0.27115,0 0,-5.179 q 1.4913,-0.4067 4.3113,-0.8948 2.82,-0.4881 5.5586,-0.4881 3.1996,0 5.5586,0.5423 2.3862,0.5152 4.1215,1.7896 1.7083,1.2473 2.6031,3.2268 0.89481,1.9794 0.89481,4.9078 l 0,20.554 z m -5.0706,-7.4567 0,-8.4329 q -2.3319,0.1356 -5.5044,0.4067 -3.1454,0.2712 -4.9892,0.7864 -2.1963,0.6236 -3.5521,1.9523 -1.3558,1.3015 -1.3558,3.6063 0,2.6031 1.5727,3.9317 1.5727,1.3016 4.7994,1.3016 2.6844,0 4.9079,-1.0304 2.2235,-1.0575 4.1215,-2.5217 z"
         inkscape:connector-curvature="0"
         style="stroke:#000000;stroke-opacity:1;fill:#000000;fill-opacity:1;stroke-width:0.48979949;stroke-miterlimit:4;stroke-dasharray:none" />
      <path
         id="path4180"
         d="m -28.314,-2451.1 q 0,4.1487 -3.4437,6.806 -3.4165,2.6573 -9.3548,2.6573 -3.3623,0 -6.1823,-0.7864 -2.7929,-0.8134 -4.691,-1.7625 l 0,-5.7213 0.27115,0 q 2.4133,1.8167 5.3688,2.9013 2.9556,1.0575 5.6671,1.0575 3.3623,0 5.2604,-1.0846 1.8981,-1.0846 1.8981,-3.4165 0,-1.7896 -1.0304,-2.7115 -1.0304,-0.922 -3.9588,-1.5727 -1.0846,-0.2441 -2.8471,-0.5694 -1.7354,-0.3254 -3.1725,-0.705 -3.986,-1.0575 -5.6671,-3.0912 -1.654,-2.0608 -1.654,-5.0435 0,-1.8709 0.75923,-3.525 0.78634,-1.654 2.359,-2.9555 1.5185,-1.2744 3.8504,-2.0066 2.359,-0.7592 5.2604,-0.7592 2.7115,0 5.4773,0.6779 2.7929,0.6508 4.6367,1.5998 l 0,5.4502 -0.27115,0 q -1.9523,-1.4371 -4.7452,-2.4133 -2.7929,-1.0033 -5.4773,-1.0033 -2.7929,0 -4.7181,1.0847 -1.9252,1.0575 -1.9252,3.1725 0,1.8709 1.166,2.82 1.1388,0.949 3.6877,1.5455 1.41,0.3254 3.1454,0.6508 1.7625,0.3254 2.9285,0.5965 3.5521,0.8135 5.4773,2.7929 1.9252,2.0066 1.9252,5.3146 z"
         inkscape:connector-curvature="0"
         style="stroke:#000000;stroke-opacity:1;fill:#000000;fill-opacity:1;stroke-width:0.48979949;stroke-miterlimit:4;stroke-dasharray:none" />
      <path
         id="path4182"
         d="m -5.2657,-2442.6 q -1.4371,0.3796 -3.1454,0.6237 -1.6812,0.244 -3.0098,0.244 -4.6367,0 -7.05,-2.4946 -2.4133,-2.4946 -2.4133,-7.999 l 0,-16.107 -3.4436,0 0,-4.2842 3.4436,0 0,-8.704 5.0977,0 0,8.704 10.521,0 0,4.2842 -10.521,0 0,13.802 q 0,2.3861 0.10846,3.7419 0.10846,1.3286 0.75923,2.4946 0.59654,1.0846 1.6269,1.5998 1.0575,0.4881 3.1996,0.4881 1.2473,0 2.6031,-0.3525 1.3558,-0.3796 1.9523,-0.6237 l 0.27115,0 0,4.5825 z"
         inkscape:connector-curvature="0"
         style="stroke:#000000;stroke-opacity:1;fill:#000000;fill-opacity:1;stroke-width:0.48979949;stroke-miterlimit:4;stroke-dasharray:none" />
      <path
         id="path4184"
         d="m 26.73,-2457.5 q 0,7.4025 -3.7962,11.687 -3.7962,4.2843 -10.168,4.2843 -6.4263,0 -10.222,-4.2843 -3.769,-4.2842 -3.769,-11.687 0,-7.4025 3.769,-11.687 3.7961,-4.3114 10.222,-4.3114 6.3721,0 10.168,4.3114 3.7962,4.2842 3.7962,11.687 z m -5.2604,0 q 0,-5.884 -2.3048,-8.7311 -2.3048,-2.8743 -6.3992,-2.8743 -4.1486,0 -6.4535,2.8743 -2.2777,2.8471 -2.2777,8.7311 0,5.6942 2.3048,8.6498 2.3048,2.9285 6.4263,2.9285 4.0673,0 6.3721,-2.9014 2.3319,-2.9284 2.3319,-8.6769 z"
         inkscape:connector-curvature="0"
         style="stroke:#000000;stroke-opacity:1;fill:#000000;fill-opacity:1;stroke-width:0.48979949;stroke-miterlimit:4;stroke-dasharray:none" />
      <path
         id="path4186"
         d="m 53.547,-2467.1 -0.27115,0 q -1.1388,-0.2712 -2.2235,-0.3796 -1.0575,-0.1356 -2.5217,-0.1356 -2.359,0 -4.5554,1.0575 -2.1963,1.0304 -4.23,2.6844 l 0,21.502 -5.0977,0 0,-30.288 5.0977,0 0,4.4741 q 3.0369,-2.4404 5.3417,-3.4437 2.3319,-1.0304 4.7452,-1.0304 1.3287,0 1.9252,0.081 0.59654,0.054 1.7896,0.244 l 0,5.2333 z"
         inkscape:connector-curvature="0"
         style="stroke:#000000;stroke-opacity:1;fill:#000000;fill-opacity:1;stroke-width:0.48979949;stroke-miterlimit:4;stroke-dasharray:none" />
      <path
         id="path4188"
         d="m 102.49,-2445.8 q 0,7.7008 -3.4979,11.307 -3.4979,3.6064 -10.765,3.6064 -2.4133,0 -4.7181,-0.3525 -2.2777,-0.3254 -4.5011,-0.9491 l 0,-5.2061 0.27115,0 q 1.2473,0.4881 3.9588,1.1931 2.7115,0.7321 5.4231,0.7321 2.6031,0 4.3113,-0.6237 1.7083,-0.6236 2.6573,-1.7354 0.94904,-1.0575 1.3558,-2.5488 0.40673,-1.4913 0.40673,-3.3352 l 0,-2.7658 q -2.3048,1.8439 -4.4198,2.7658 -2.0879,0.8948 -5.3417,0.8948 -5.4231,0 -8.6227,-3.9046 -3.1725,-3.9317 -3.1725,-11.063 0,-3.9046 1.0846,-6.7246 1.1117,-2.8471 3.0098,-4.9079 1.7625,-1.9251 4.2842,-2.9826 2.5217,-1.0847 5.0163,-1.0847 2.6302,0 4.3927,0.5424 1.7896,0.5151 3.769,1.5998 l 0.32538,-1.3016 4.7723,0 0,26.844 z m -5.0977,-4.8807 0,-16.513 q -2.0337,-0.9219 -3.7962,-1.3015 -1.7354,-0.4068 -3.4708,-0.4068 -4.2029,0 -6.6161,2.82 -2.4133,2.82 -2.4133,8.1889 0,5.0977 1.7896,7.7279 1.7896,2.6301 5.9383,2.6301 2.2235,0 4.4469,-0.8405 2.2506,-0.8677 4.1215,-2.3048 z"
         inkscape:connector-curvature="0"
         style="stroke:#000000;stroke-opacity:1;fill:#000000;fill-opacity:1;stroke-width:0.48979949;stroke-miterlimit:4;stroke-dasharray:none" />
      <path
         id="path4190"
         d="m 136.06,-2442.4 -5.0706,0 0,-3.2268 q -0.67788,0.461 -1.8438,1.3016 -1.1388,0.8134 -2.2235,1.3015 -1.2744,0.6237 -2.9285,1.0304 -1.654,0.4339 -3.8775,0.4339 -4.0944,0 -6.9415,-2.7116 -2.8471,-2.7115 -2.8471,-6.9144 0,-3.4437 1.4642,-5.5586 1.4914,-2.1422 4.23,-3.3624 2.7658,-1.2201 6.6433,-1.654 3.8775,-0.4338 8.3244,-0.6508 l 0,-0.7863 q 0,-1.7354 -0.62365,-2.8742 -0.59654,-1.1389 -1.7354,-1.7896 -1.0846,-0.6237 -2.6031,-0.8406 -1.5185,-0.2169 -3.1725,-0.2169 -2.0065,0 -4.474,0.5423 -2.4675,0.5152 -5.0977,1.5184 l -0.27116,0 0,-5.179 q 1.4914,-0.4067 4.3113,-0.8948 2.82,-0.4881 5.5586,-0.4881 3.1996,0 5.5586,0.5423 2.3862,0.5152 4.1215,1.7896 1.7083,1.2473 2.6031,3.2268 0.8948,1.9794 0.8948,4.9078 l 0,20.554 z m -5.0706,-7.4567 0,-8.4329 q -2.3319,0.1356 -5.5044,0.4067 -3.1454,0.2712 -4.9892,0.7864 -2.1963,0.6236 -3.5521,1.9523 -1.3558,1.3015 -1.3558,3.6063 0,2.6031 1.5727,3.9317 1.5727,1.3016 4.7994,1.3016 2.6844,0 4.9079,-1.0304 2.2235,-1.0575 4.1215,-2.5217 z"
         inkscape:connector-curvature="0"
         style="stroke:#000000;stroke-opacity:1;fill:#000000;fill-opacity:1;stroke-width:0.48979949;stroke-miterlimit:4;stroke-dasharray:none" />
      <path
         id="path4192"
         d="m 190.13,-2442.4 -5.0977,0 0,-17.245 q 0,-1.9523 -0.18981,-3.769 -0.16269,-1.8168 -0.73212,-2.9014 -0.62365,-1.1659 -1.7896,-1.7625 -1.166,-0.5965 -3.3623,-0.5965 -2.1421,0 -4.2842,1.0846 -2.1421,1.0575 -4.2842,2.7115 0.0813,0.6237 0.13558,1.4643 0.0542,0.8134 0.0542,1.6269 l 0,19.388 -5.0977,0 0,-17.245 q 0,-2.0065 -0.1898,-3.7961 -0.16269,-1.8168 -0.73212,-2.9014 -0.62365,-1.1659 -1.7896,-1.7354 -1.166,-0.5965 -3.3623,-0.5965 -2.0879,0 -4.2029,1.0304 -2.0879,1.0304 -4.1758,2.6302 l 0,22.614 -5.0977,0 0,-30.288 5.0977,0 0,3.3623 q 2.3862,-1.9794 4.7452,-3.0911 2.3862,-1.1118 5.0706,-1.1118 3.0912,0 5.2333,1.3016 2.1692,1.3015 3.2267,3.6063 3.0912,-2.603 5.64,-3.7419 2.5488,-1.166 5.4502,-1.166 4.9892,0 7.3483,3.037 2.3862,3.0098 2.3862,8.4328 l 0,19.659 z"
         inkscape:connector-curvature="0"
         style="stroke:#000000;stroke-opacity:1;fill:#000000;fill-opacity:1;stroke-width:0.48979949;stroke-miterlimit:4;stroke-dasharray:none" />
      <path
         id="path4194"
         d="m 225.3,-2457 -22.316,0 q 0,2.7929 0.84057,4.8808 0.84058,2.0607 2.3048,3.3894 1.41,1.3015 3.3352,1.9523 1.9523,0.6508 4.2842,0.6508 3.0912,0 6.2094,-1.2202 3.1454,-1.2473 4.474,-2.4404 l 0.27116,0 0,5.5586 q -2.576,1.0846 -5.2604,1.8168 -2.6844,0.7321 -5.64,0.7321 -7.5381,0 -11.768,-4.0673 -4.23,-4.0944 -4.23,-11.605 0,-7.4296 4.0402,-11.795 4.0673,-4.3656 10.683,-4.3656 6.1281,0 9.4362,3.5793 3.3352,3.5792 3.3352,10.168 l 0,2.7658 z m -4.9621,-3.9046 q -0.0271,-4.0131 -2.0336,-6.2094 -1.9794,-2.1964 -6.0467,-2.1964 -4.0944,0 -6.5348,2.4133 -2.4133,2.4133 -2.7386,5.9925 l 17.354,0 z"
         inkscape:connector-curvature="0"
         style="stroke:#000000;stroke-opacity:1;fill:#000000;fill-opacity:1;stroke-width:0.48979949;stroke-miterlimit:4;stroke-dasharray:none" />
      <path
         id="path4196"
         d="m 254.66,-2451.1 q 0,4.1487 -3.4436,6.806 -3.4165,2.6573 -9.3548,2.6573 -3.3623,0 -6.1823,-0.7864 -2.7929,-0.8134 -4.691,-1.7625 l 0,-5.7213 0.27116,0 q 2.4133,1.8167 5.3688,2.9013 2.9556,1.0575 5.6671,1.0575 3.3623,0 5.2604,-1.0846 1.8981,-1.0846 1.8981,-3.4165 0,-1.7896 -1.0304,-2.7115 -1.0304,-0.922 -3.9588,-1.5727 -1.0846,-0.2441 -2.8471,-0.5694 -1.7354,-0.3254 -3.1725,-0.705 -3.986,-1.0575 -5.6671,-3.0912 -1.654,-2.0608 -1.654,-5.0435 0,-1.8709 0.75923,-3.525 0.78635,-1.654 2.359,-2.9555 1.5185,-1.2744 3.8504,-2.0066 2.359,-0.7592 5.2604,-0.7592 2.7115,0 5.4773,0.6779 2.7929,0.6508 4.6367,1.5998 l 0,5.4502 -0.27115,0 q -1.9523,-1.4371 -4.7452,-2.4133 -2.7929,-1.0033 -5.4773,-1.0033 -2.7929,0 -4.7181,1.0847 -1.9252,1.0575 -1.9252,3.1725 0,1.8709 1.166,2.82 1.1388,0.949 3.6877,1.5455 1.41,0.3254 3.1454,0.6508 1.7625,0.3254 2.9285,0.5965 3.5521,0.8135 5.4773,2.7929 1.9252,2.0066 1.9252,5.3146 z"
         inkscape:connector-curvature="0"
         style="stroke:#000000;stroke-opacity:1;fill:#000000;fill-opacity:1;stroke-width:0.48979949;stroke-miterlimit:4;stroke-dasharray:none" />
    </g>
    <g
       id="text4149"
       transform="scale(-1.2896 -.77543)">
      <path
         id="path4168"
         style=""
         d="m-88.663 6121.1q0 28.551-18.866 46.662-18.74 17.986-46.034 17.986-13.835 0-25.155-4.2764-11.32-4.2763-19.998-12.703-10.817-10.439-16.728-27.67-5.7856-17.231-5.7856-41.506 0-24.903 5.2825-44.147 5.4083-19.244 17.105-34.211 11.068-14.212 28.551-22.136 17.483-8.0496 40.751-8.0496 7.4207 0 12.452 0.6289 5.031 0.6289 10.188 2.2639v24.023h-1.2578q-3.5217-1.8866-10.691-3.5217-7.0434-1.7608-14.464-1.7608-27.042 0-43.141 16.98-16.099 16.854-18.74 45.656 10.565-6.4145 20.753-9.6846 10.314-3.396 23.771-3.396 11.949 0 21.004 2.264 9.1815 2.1382 18.74 8.8042 11.068 7.6723 16.602 19.369 5.6599 11.697 5.6599 28.425zm-25.532 1.0062q0-11.697-3.5217-19.369-3.3959-7.6723-11.32-13.332-5.7856-4.0247-12.829-5.2825-7.0434-1.2577-14.716-1.2577-10.691 0-19.872 2.5155-9.1816 2.5155-18.866 7.798-0.25155 2.767-0.37732 5.4083-0.12578 2.5155-0.12578 6.4145 0 19.872 4.0248 31.444 4.1506 11.446 11.32 18.112 5.7856 5.5341 12.452 8.1753 6.7918 2.5155 14.716 2.5155 18.237 0 28.677-11.068 10.439-11.194 10.439-32.073z" />
    </g>
  </g>
</svg>
